<svg width="38" height="31" viewBox="0 0 38 31" fill="none" xmlns="http://www.w3.org/2000/svg">
<path d="M38 18.2178C38 18.2178 35.4422 18.6423 33.3013 17.1834C31.1604 15.7277 35.7494 8.55304 27.2109 2.33413C23.9823 -0.0176078 20.6503 0.780978 18.9984 1.43494C17.3465 0.780978 14.0145 -0.0176078 10.7859 2.33413C2.2506 8.55304 6.83956 15.7277 4.69867 17.1834C2.55778 18.6391 0 18.2178 0 18.2178L3.52949 21.9592L0.561082 24.6065L6.88971 26.6124L7.00883 30.4356C7.00883 30.4356 14.4001 26.7382 17.4688 25.0655L18.9984 25.0121L20.5281 25.0655C23.5968 26.7382 30.988 30.4356 30.988 30.4356L31.1072 26.6124L37.4358 24.6065L34.4674 21.9592L37.9969 18.2178H38Z" fill="#130000"/>
<path d="M8.22046 17.0389C8.22046 19.0919 7.78789 20.5508 5.47147 20.3055C4.34303 20.1861 3.33058 19.5007 2.86353 18.4631C1.71943 15.9165 3.54686 13.439 5.94792 13.439C7.84431 13.439 8.21732 15.1336 8.21732 17.0389H8.22046Z" fill="#F8B733" stroke="#130000" stroke-width="0.25" stroke-miterlimit="10"/>
<path d="M8.01772 16.3599C7.9613 16.0613 7.84218 15.7752 7.66352 15.5268C7.20587 14.8885 6.20909 13.8258 4.90826 14.3195C3.51652 14.8477 3.08396 16.3065 3.70146 17.3283C4.14343 18.0577 4.6669 18.2778 4.9302 18.3438C4.99602 18.3596 5.04618 18.2872 5.0117 18.2306C4.77347 17.8376 4.20299 16.7184 5.06185 16.2122C5.92071 15.706 7.49739 16.5329 7.97697 16.819C8.03339 16.8536 8.09922 16.8033 8.08981 16.7404L8.01772 16.3599Z" fill="#F98D36"/>
<path d="M5.93072 17.6643L6.51374 18.4063L7.39768 18.0825L6.87421 18.8685L7.45724 19.6105L6.54822 19.3527L6.02162 20.1387L5.98714 19.1923L5.07812 18.9345L5.9652 18.6075L5.93072 17.6643Z" fill="#F43430"/>
<path d="M29.7812 17.0389C29.7812 19.0919 30.2138 20.5508 32.5302 20.3055C33.6587 20.1861 34.6711 19.5007 35.1382 18.4631C36.2823 15.9165 34.4548 13.439 32.0538 13.439C30.1574 13.439 29.7844 15.1336 29.7844 17.0389H29.7812Z" fill="#F8B733" stroke="#130000" stroke-width="0.25" stroke-miterlimit="10"/>
<path d="M29.9822 16.3599C30.0386 16.0613 30.1577 15.7752 30.3364 15.5268C30.794 14.8885 31.7908 13.8258 33.0916 14.3195C34.4834 14.8477 34.9159 16.3065 34.2984 17.3283C33.8565 18.0577 33.333 18.2778 33.0697 18.3438C33.0039 18.3596 32.9537 18.2872 32.9882 18.2306C33.2264 17.8376 33.7969 16.7184 32.938 16.2122C32.0792 15.706 30.5025 16.5329 30.0229 16.819C29.9665 16.8536 29.9007 16.8033 29.9101 16.7404L29.9822 16.3599Z" fill="#F98D36"/>
<path d="M32.0734 17.6643L31.4904 18.4063L30.6033 18.0825L31.1299 18.8685L30.5469 19.6105L31.4528 19.3527L31.9794 20.1387L32.0138 19.1923L32.9229 18.9345L32.0358 18.6075L32.0734 17.6643Z" fill="#F43430"/>
<path d="M27.8544 20.5977C27.6538 17.7932 25.8671 17.1518 25.8671 17.1518C28.033 13.6493 27.6161 9.0496 24.7982 8.04351C20.8048 6.61926 19.3065 9.23824 19.0024 9.8922C18.6984 9.23824 17.2032 6.61926 13.2067 8.04351C10.3887 9.04646 9.97183 13.6462 12.1378 17.1518C12.1378 17.1518 10.3511 17.7932 10.1505 20.5977C9.94989 23.4021 12.5547 25.4709 15.9651 26.062C17.0528 26.2506 18.0872 26.345 19.0024 26.345C19.9177 26.345 20.9553 26.2506 22.0398 26.062C25.447 25.4709 28.055 23.4053 27.8544 20.5977Z" fill="#F8B733" stroke="#130000" stroke-width="0.25" stroke-miterlimit="10"/>
<path d="M17.4658 6.74819C17.4658 6.74819 12.1684 6.11939 11.7076 10.8857C10.7767 20.5191 4.0625 14.0549 4.0625 14.0549C4.0625 14.0549 7.21898 12.5175 7.58885 8.00895C7.76125 5.8993 14.209 2.9502 14.3657 2.9502C14.5225 2.9502 17.4658 6.75134 17.4658 6.75134V6.74819Z" fill="#130000"/>
<path d="M20.5342 6.74819C20.5342 6.74819 25.8315 6.11939 26.2923 10.8857C27.2233 20.5191 33.9375 14.0549 33.9375 14.0549C33.9375 14.0549 30.781 12.5175 30.4111 8.00895C30.2387 5.8993 23.791 2.9502 23.6342 2.9502C23.4775 2.9502 20.5342 6.75134 20.5342 6.75134V6.74819Z" fill="#130000"/>
</svg>
